<?xml version="1.0" encoding="utf-8"?>
<!-- Generator: Adobe Illustrator 16.0.0, SVG Export Plug-In . SVG Version: 6.00 Build 0)  -->
<!DOCTYPE svg PUBLIC "-//W3C//DTD SVG 1.1//EN" "http://www.w3.org/Graphics/SVG/1.1/DTD/svg11.dtd">
<svg version="1.1" id="Layer_1" xmlns="http://www.w3.org/2000/svg" xmlns:xlink="http://www.w3.org/1999/xlink" x="0px" y="0px"
	 width="308px" height="84px" viewBox="0 0 308 84" enable-background="new 0 0 308 84" xml:space="preserve">
<g>
	<g>
		<g>
			<path fill="#B3B5B8" d="M73.913,27.078v16.81H57.129v-16.81H73.913z M39.047,62.019V45.224h16.764v16.795H39.047z M57.129,45.224
				h16.783v16.795H57.129V45.224z M37.694,62.019H20.909V45.224h16.785V62.019z M20.856,27.093h16.838v16.795H20.856V27.093z
				 M55.792,27.093v16.795H39.04V27.093H55.792z M75.25,25.752H19.555l0.006,37.593h55.686L75.25,25.752z"/>
			<rect x="92.055" y="26.687" fill="#E1E2E3" width="1.336" height="17.568"/>
			<linearGradient id="SVGID_1_" gradientUnits="userSpaceOnUse" x1="20.0024" y1="62.6982" x2="11.231" y2="62.6982">
				<stop  offset="0.1" style="stop-color:#B3B5B8"/>
				<stop  offset="0.1078" style="stop-color:#B5B7BA"/>
				<stop  offset="0.249" style="stop-color:#D5D6D8"/>
				<stop  offset="0.3852" style="stop-color:#ECEDED"/>
				<stop  offset="0.5129" style="stop-color:#FAFAFB"/>
				<stop  offset="0.6236" style="stop-color:#FFFFFF"/>
			</linearGradient>
			<rect x="11.264" y="62.029" fill="url(#SVGID_1_)" width="8.771" height="1.337"/>
			
				<linearGradient id="SVGID_2_" gradientUnits="userSpaceOnUse" x1="308.0625" y1="-941.251" x2="308.0625" y2="-884.5485" gradientTransform="matrix(0.288 0 0 0.288 -32.2589 332.3628)">
				<stop  offset="0.1" style="stop-color:#B3B5B8"/>
				<stop  offset="1" style="stop-color:#F7F8F8"/>
			</linearGradient>
			<rect x="55.795" y="62.882" fill="url(#SVGID_2_)" width="1.334" height="17.571"/>
			
				<linearGradient id="SVGID_3_" gradientUnits="userSpaceOnUse" x1="365.1123" y1="-970.4653" x2="365.1123" y2="-913.7775" gradientTransform="matrix(0.288 0 0 0.288 -12.4283 322.1577)">
				<stop  offset="0.1" style="stop-color:#E1E2E3"/>
				<stop  offset="0.6487" style="stop-color:#E3E4E5"/>
				<stop  offset="0.8461" style="stop-color:#EAEBEB"/>
				<stop  offset="0.9865" style="stop-color:#F5F6F6"/>
				<stop  offset="1" style="stop-color:#F7F8F8"/>
			</linearGradient>
			<rect x="92.055" y="44.151" fill="url(#SVGID_3_)" width="1.336" height="19.193"/>
			<linearGradient id="SVGID_4_" gradientUnits="userSpaceOnUse" x1="38.3667" y1="26.1465" x2="38.3667" y2="17.3166">
				<stop  offset="0.1" style="stop-color:#B3B5B8"/>
				<stop  offset="0.1033" style="stop-color:#B4B6B9"/>
				<stop  offset="0.2069" style="stop-color:#CFD0D2"/>
				<stop  offset="0.3187" style="stop-color:#E4E5E6"/>
				<stop  offset="0.4433" style="stop-color:#F3F4F4"/>
				<stop  offset="0.5893" style="stop-color:#FCFCFC"/>
				<stop  offset="0.809" style="stop-color:#FFFFFF"/>
			</linearGradient>
			<rect x="37.694" y="17.369" fill="url(#SVGID_4_)" width="1.346" height="8.793"/>
			<linearGradient id="SVGID_5_" gradientUnits="userSpaceOnUse" x1="74.5864" y1="26.2808" x2="74.5864" y2="2.2551">
				<stop  offset="0.1" style="stop-color:#B3B5B8"/>
				<stop  offset="0.4117" style="stop-color:#B5B7BA"/>
				<stop  offset="0.5905" style="stop-color:#BEBFC2"/>
				<stop  offset="0.7356" style="stop-color:#CCCDCF"/>
				<stop  offset="0.8627" style="stop-color:#DFE0E2"/>
				<stop  offset="0.977" style="stop-color:#F9F9F9"/>
				<stop  offset="1" style="stop-color:#FFFFFF"/>
			</linearGradient>
			<rect x="73.913" y="2.097" fill="url(#SVGID_5_)" width="1.348" height="24.354"/>
			<linearGradient id="SVGID_6_" gradientUnits="userSpaceOnUse" x1="56.4634" y1="26.1465" x2="56.4634" y2="17.3166">
				<stop  offset="0.1" style="stop-color:#B3B5B8"/>
				<stop  offset="0.1033" style="stop-color:#B4B6B9"/>
				<stop  offset="0.2069" style="stop-color:#CFD0D2"/>
				<stop  offset="0.3187" style="stop-color:#E4E5E6"/>
				<stop  offset="0.4433" style="stop-color:#F3F4F4"/>
				<stop  offset="0.5893" style="stop-color:#FCFCFC"/>
				<stop  offset="0.809" style="stop-color:#FFFFFF"/>
			</linearGradient>
			<rect x="55.792" y="17.369" fill="url(#SVGID_6_)" width="1.344" height="8.793"/>
			
				<linearGradient id="SVGID_7_" gradientUnits="userSpaceOnUse" x1="251.9482" y1="-873.499" x2="314.1949" y2="-873.499" gradientTransform="matrix(0.288 0 0 0.288 -33.5612 332.3687)">
				<stop  offset="0.1" style="stop-color:#C6C8CA"/>
				<stop  offset="1" style="stop-color:#F7F8F8"/>
			</linearGradient>
			<rect x="37.856" y="80.129" fill="url(#SVGID_7_)" width="19.258" height="1.344"/>
			<rect x="19.573" y="80.144" fill="#C6C8CA" width="19.098" height="1.329"/>
			
				<linearGradient id="SVGID_8_" gradientUnits="userSpaceOnUse" x1="803.3584" y1="-508.584" x2="845.1299" y2="-508.584" gradientTransform="matrix(0.4463 0 0 0.4463 -283.2109 253.4039)">
				<stop  offset="0" style="stop-color:#B3B5B8"/>
				<stop  offset="0.4752" style="stop-color:#B5B7BA"/>
				<stop  offset="0.6464" style="stop-color:#BCBDC0"/>
				<stop  offset="0.7685" style="stop-color:#C7C9CB"/>
				<stop  offset="0.8671" style="stop-color:#D8D9DB"/>
				<stop  offset="0.9506" style="stop-color:#EEEFEF"/>
				<stop  offset="1" style="stop-color:#FFFFFF"/>
			</linearGradient>
			<rect x="73.915" y="25.745" fill="url(#SVGID_8_)" width="19.041" height="1.354"/>
			
				<linearGradient id="SVGID_9_" gradientUnits="userSpaceOnUse" x1="549.376" y1="-334.8906" x2="597.9307" y2="-334.8906" gradientTransform="matrix(0.384 0 0 0.384 -136.5123 173.1436)">
				<stop  offset="0.1" style="stop-color:#B3B5B8"/>
				<stop  offset="0.135" style="stop-color:#BBBCBF"/>
				<stop  offset="0.2423" style="stop-color:#CCCDCF"/>
				<stop  offset="0.3736" style="stop-color:#D8D9DB"/>
				<stop  offset="0.553" style="stop-color:#DFE0E1"/>
				<stop  offset="1" style="stop-color:#E1E2E3"/>
			</linearGradient>
			<rect x="74.313" y="43.877" fill="url(#SVGID_9_)" width="18.645" height="1.337"/>
			
				<linearGradient id="SVGID_10_" gradientUnits="userSpaceOnUse" x1="549.3037" y1="-287.6748" x2="597.8686" y2="-287.6748" gradientTransform="matrix(0.384 0 0 0.384 -136.5123 173.1436)">
				<stop  offset="0" style="stop-color:#B3B5B8"/>
				<stop  offset="1" style="stop-color:#F7F8F8"/>
			</linearGradient>
			<polygon fill="url(#SVGID_10_)" points="93.204,62.008 74.063,62.008 74.063,63.345 93.209,63.345 			"/>
			<linearGradient id="SVGID_11_" gradientUnits="userSpaceOnUse" x1="82.1489" y1="26.437" x2="100.7226" y2="26.437">
				<stop  offset="0.2753" style="stop-color:#E1E2E3"/>
				<stop  offset="0.6904" style="stop-color:#E3E4E5"/>
				<stop  offset="0.8399" style="stop-color:#EAEAEB"/>
				<stop  offset="0.9461" style="stop-color:#F5F6F6"/>
				<stop  offset="1" style="stop-color:#FFFFFF"/>
			</linearGradient>
			<rect x="82.19" y="25.76" fill="url(#SVGID_11_)" width="18.645" height="1.354"/>
			
				<linearGradient id="SVGID_12_" gradientUnits="userSpaceOnUse" x1="411.6689" y1="-334.8633" x2="357.2127" y2="-334.8633" gradientTransform="matrix(0.384 0 0 0.384 -136.5123 173.1436)">
				<stop  offset="0.1" style="stop-color:#B3B5B8"/>
				<stop  offset="0.3818" style="stop-color:#B6B8BB"/>
				<stop  offset="0.5847" style="stop-color:#BFC1C3"/>
				<stop  offset="0.7624" style="stop-color:#CFD0D2"/>
				<stop  offset="0.9" style="stop-color:#E1E2E3"/>
			</linearGradient>
			<rect x="1.69" y="43.888" fill="url(#SVGID_12_)" width="18.359" height="1.336"/>
			
				<linearGradient id="SVGID_13_" gradientUnits="userSpaceOnUse" x1="-696.665" y1="-816.3823" x2="-751.1115" y2="-816.3823" gradientTransform="matrix(0 0.384 -0.384 0 -293.2891 313.3735)">
				<stop  offset="0.1" style="stop-color:#B3B5B8"/>
				<stop  offset="0.5525" style="stop-color:#B5B7BA"/>
				<stop  offset="0.8092" style="stop-color:#BEC0C2"/>
				<stop  offset="1" style="stop-color:#CACCCD"/>
			</linearGradient>
			<rect x="19.547" y="26.7" fill="url(#SVGID_13_)" width="1.309" height="17.555"/>
			<rect x="1.682" y="25.745" fill="#E1E2E3" width="1.426" height="18.506"/>
			
				<linearGradient id="SVGID_14_" gradientUnits="userSpaceOnUse" x1="408.209" y1="-290.3921" x2="408.209" y2="-237.3692" gradientTransform="matrix(0.384 0 0 0.384 -136.5123 173.1436)">
				<stop  offset="0.1" style="stop-color:#B3B5B8"/>
				<stop  offset="0.6023" style="stop-color:#B5B7BA"/>
				<stop  offset="0.783" style="stop-color:#BCBEC0"/>
				<stop  offset="0.9" style="stop-color:#C6C8CA"/>
			</linearGradient>
			<rect x="19.573" y="62.896" fill="url(#SVGID_14_)" width="1.336" height="18.331"/>
			
				<linearGradient id="SVGID_15_" gradientUnits="userSpaceOnUse" x1="455.4229" y1="-290.4453" x2="455.4229" y2="-236.0174" gradientTransform="matrix(0.384 0 0 0.384 -136.5123 173.1436)">
				<stop  offset="0.1" style="stop-color:#B3B5B8"/>
				<stop  offset="0.6023" style="stop-color:#B5B7BA"/>
				<stop  offset="0.783" style="stop-color:#BCBEC0"/>
				<stop  offset="0.9" style="stop-color:#C6C8CA"/>
			</linearGradient>
			<rect x="37.694" y="62.796" fill="url(#SVGID_15_)" width="1.354" height="18.438"/>
			
				<linearGradient id="SVGID_16_" gradientUnits="userSpaceOnUse" x1="1039.667" y1="-386.957" x2="938.0515" y2="-386.957" gradientTransform="matrix(0.3841 0 0 0.3841 -358.8003 175.0529)">
				<stop  offset="0.1" style="stop-color:#B3B5B8"/>
				<stop  offset="0.382" style="stop-color:#BDBFC1"/>
				<stop  offset="0.8607" style="stop-color:#D8D9DA"/>
				<stop  offset="1" style="stop-color:#E1E2E3"/>
			</linearGradient>
			<rect x="1.69" y="25.752" fill="url(#SVGID_16_)" width="36.166" height="1.341"/>
			<g>
				<rect x="74.612" y="26.444" fill="#FDB845" width="18.092" height="18.096"/>
				<rect x="56.487" y="26.444" fill="#F8991D" width="18.113" height="18.096"/>
				<rect x="74.612" y="8.337" fill="#EF3E42" width="18.092" height="18.11"/>
				<rect x="38.387" y="44.532" fill="#004990" width="18.094" height="18.1"/>
				<rect x="56.481" y="44.536" fill="#00ADA8" width="18.096" height="18.1"/>
				<rect x="20.282" y="62.621" fill="#4D90CD" width="18.105" height="18.106"/>
				<rect x="2.2" y="26.444" fill="#EF3E42" width="18.096" height="18.096"/>
			</g>
		</g>
		<g>
			<g>
				<path fill="#004990" d="M219.66,60.732l6.01-6.412c-3.084,0.973-7.445,2.135-11.213,2.135c-9.557,0-12.275-5.125-12.254-9.441
					c0.039-6.747,5.846-13.438,15.029-13.438c5.789,0,8.641,2.191,10.105,3.721l3.82-8.219c-5.193-3.347-13.127-3.354-14.602-3.354
					c-18.15,0-27.553,10.408-27.553,21.86c0,9.234,6.996,16.467,19.896,16.467c3.467,0,7.316-1.052,8.881-1.354L219.66,60.732z"/>
			</g>
			<g>
				<path fill="#004990" d="M184.25,60.479l6.01-6.398c-3.088,0.974-7.457,2.136-11.221,2.136c-9.561,0-12.275-5.126-12.252-9.446
					c0.037-6.754,5.842-13.444,15.023-13.444c5.793,0,8.652,2.199,10.109,3.729l3.824-8.219c-5.189-3.348-13.135-3.358-14.613-3.358
					c-18.139,0-27.541,10.415-27.541,21.86c0,9.238,6.996,16.474,19.893,16.474c3.461,0,7.312-1.055,8.871-1.365L184.25,60.479z"/>
			</g>
			<path fill="#004990" d="M141.407,26.512h-19.133l-11.346,36.241h13.381l3.752-11.762c2.154,0.31,4.791,0.62,7.482,0.62
				c3.643,0,8.964-0.311,13.505-3.286c3.643-2.413,6.102-6.673,6.252-10.817C155.557,30.229,147.918,26.512,141.407,26.512
				 M141.741,39.29c-0.412,1.418-2.195,3.991-5.83,4.295c-1.744,0.271-3.961,0.124-5.436-0.339l2.619-8.618h4.434
				C139.856,34.628,142.635,36.186,141.741,39.29z"/>
			<polygon fill="#004990" points="269.393,62.785 255.406,62.785 255.039,45.556 245.891,62.785 230.293,62.785 231.191,26.551 
				243.848,26.551 242.375,47.537 255.164,26.551 264.756,26.551 266.164,47.669 275.83,26.551 289.438,26.551 			"/>
		</g>
	</g>
	<path fill="#004990" d="M291.371,21.67c0-3.99,3.238-7.25,7.252-7.25c4.01,0,7.246,3.26,7.246,7.25
		c0,3.993-3.236,7.255-7.246,7.255C294.609,28.925,291.371,25.663,291.371,21.67z M304.768,21.67c0-3.454-2.684-6.144-6.145-6.144
		c-3.457,0-6.141,2.689-6.141,6.144c0,3.459,2.684,6.143,6.141,6.143C302.084,27.812,304.768,25.129,304.768,21.67z M298.77,17.304
		c2.484,0,3.023,1.395,3.023,2.543c0,1.071-0.752,2.044-2.043,2.293l1.861,4.224h-1.217l-1.771-4.062h-1.775v4.062h-1.107v-9.06
		H298.77z M296.73,21.312h1.465c1.848,0,2.154-0.644,2.154-1.483c0-1.169-0.754-1.543-1.955-1.543h-1.664V21.312z"/>
</g>
</svg>
